# xmcd
#
# Track frame offsets: 
#        150
#        13778
#        27077
#        40972
#        56634
#        68188
#        80594
#        95654
#        110051
#        124457
#        137258
#        150407
#        165645
#        178370
#        190842
#        204030
#
# Disc length: 2911 seconds
#
# Revision: 1
# Processed by: cddbd v1.5.1PL2 Copyright (c) Steve Scherf et al.
# Submitted via: ExactAudioCopy v0.95b3
#
DISCID=d90b5d10
DTITLE=Various Artist - 16 Classic Blues Songs from the 1920's: Vol. 3
DYEAR=2005
DGENRE=Blues
TTITLE0=Skip James - Devil Got My Woman
TTITLE1=Charley Patton - Love My Stuff
TTITLE2=Willie Brown - M and O Blues
TTITLE3=Mississippi Sheiks - He Calls That Religion
TTITLE4=Blind Blake - Champagne Charlie Is My Name
TTITLE5=Ida Cox - Lost Man Blues
TTITLE6=King Solomon Hill - The Gone Dead Train
TTITLE7=Blind Lemon Jefferson - War Time Blues
TTITLE8=Ma Rainey - Ma Rainey's Black Bottom
TTITLE9=Papa Charlie Jackson - Skoodle Um Skoo
TTITLE10=Blind Roosevelt Graves and Brother - Guitar Boogie
TTITLE11=Leroy Carr - Christmas In Jail
TTITLE12=Mattie Delaney - Tallahatchie River Blues
TTITLE13=Louie Lasky - How You Want Your Rollin' Done
TTITLE14=George Torey - Married Woman Blues
TTITLE15=Skip James - Cypress Grove Blues
EXTD=
EXTT0=
EXTT1=
EXTT2=
EXTT3=
EXTT4=
EXTT5=
EXTT6=
EXTT7=
EXTT8=
EXTT9=
EXTT10=
EXTT11=
EXTT12=
EXTT13=
EXTT14=
EXTT15=
PLAYORDER=
